<svg xmlns="http://www.w3.org/2000/svg" width="139" height="23" fill="none" viewBox="0 0 139 23">
  <path fill="#fff" d="M.321.545h5.224l4.432 10.807h.205L14.614.545h5.224V18H15.73V7.278h-.145L11.392 17.89H8.767L4.574 7.22h-.145V18H.321V.545Zm28.26 17.702c-1.376 0-2.558-.281-3.546-.844a5.821 5.821 0 0 1-2.276-2.369c-.528-1.017-.792-2.196-.792-3.537 0-1.346.264-2.525.792-3.537a5.753 5.753 0 0 1 2.276-2.37c.988-.567 2.17-.851 3.545-.851s2.554.284 3.537.852a5.684 5.684 0 0 1 2.276 2.37c.534 1.01.8 2.19.8 3.536 0 1.341-.266 2.52-.8 3.537a5.75 5.75 0 0 1-2.276 2.37c-.983.562-2.162.843-3.537.843Zm.025-3.145c.5 0 .923-.153 1.27-.46.346-.307.61-.733.792-1.278.188-.546.282-1.177.282-1.892 0-.728-.094-1.364-.282-1.91-.181-.545-.446-.971-.792-1.278-.347-.307-.77-.46-1.27-.46-.517 0-.955.153-1.313.46-.352.307-.622.733-.81 1.278-.181.546-.272 1.182-.272 1.91 0 .716.09 1.346.273 1.892.187.545.457.971.81 1.278.357.307.795.46 1.312.46Zm12.89-4.568V18H37.33V4.91h3.963v2.402h.145A3.676 3.676 0 0 1 42.92 5.43c.699-.46 1.531-.69 2.497-.69.92 0 1.719.207 2.395.622a4.15 4.15 0 0 1 1.585 1.721c.38.733.568 1.591.563 2.574V18h-4.168v-7.526c.006-.727-.18-1.295-.554-1.704-.37-.41-.884-.614-1.543-.614a2.28 2.28 0 0 0-1.159.29c-.33.188-.585.457-.767.81-.176.352-.267.778-.273 1.278Zm17.163 7.713c-1.37 0-2.551-.27-3.545-.81a5.6 5.6 0 0 1-2.284-2.326c-.529-1.012-.793-2.213-.793-3.605 0-1.353.267-2.534.801-3.546a5.784 5.784 0 0 1 2.259-2.37c.971-.567 2.116-.851 3.434-.851.932 0 1.784.145 2.557.434.773.29 1.44.72 2.003 1.287.562.568 1 1.27 1.312 2.105.313.83.47 1.782.47 2.856v1.04h-11.38V10.04h7.5a2.348 2.348 0 0 0-.315-1.185 2.142 2.142 0 0 0-.844-.81 2.436 2.436 0 0 0-1.218-.298 2.48 2.48 0 0 0-1.253.316c-.37.204-.662.485-.878.843a2.37 2.37 0 0 0-.341 1.202v2.463c0 .534.105 1.003.315 1.406.21.398.509.708.895.93.387.22.847.332 1.38.332.37 0 .705-.052 1.007-.154.3-.102.56-.253.775-.452a1.86 1.86 0 0 0 .486-.732l3.826.11a4.733 4.733 0 0 1-1.048 2.242c-.534.63-1.236 1.122-2.105 1.474-.87.347-1.875.52-3.017.52Zm10.538 4.662c-.5 0-.971-.04-1.414-.12a5.72 5.72 0 0 1-1.142-.298l.92-3.025c.41.136.778.216 1.108.238.335.023.622-.03.86-.161.245-.125.433-.35.563-.674l.162-.392L65.601 4.91h4.364l2.411 9.341h.137l2.446-9.34h4.389l-4.935 14.343a6.052 6.052 0 0 1-1.014 1.892 4.406 4.406 0 0 1-1.679 1.295c-.682.313-1.523.47-2.523.47ZM80.946.545h5.225l4.431 10.807h.205L95.239.545h5.224V18h-4.108V7.278h-.145L92.017 17.89h-2.625L85.199 7.22h-.145V18h-4.108V.545Zm25.839 17.677c-.835 0-1.577-.14-2.225-.418a3.465 3.465 0 0 1-1.525-1.278c-.37-.574-.554-1.293-.554-2.157 0-.727.128-1.34.383-1.84a3.28 3.28 0 0 1 1.057-1.22 4.975 4.975 0 0 1 1.551-.707 10.093 10.093 0 0 1 1.875-.332c.745-.068 1.344-.14 1.799-.213.454-.08.784-.19.988-.333a.718.718 0 0 0 .316-.622V9.06c0-.438-.151-.776-.452-1.015-.301-.238-.708-.357-1.219-.357-.551 0-.994.119-1.329.357a1.575 1.575 0 0 0-.64.99l-3.843-.137a4.544 4.544 0 0 1 .877-2.13c.478-.632 1.131-1.126 1.961-1.484.835-.364 1.838-.545 3.008-.545.835 0 1.605.1 2.31.298a5.73 5.73 0 0 1 1.841.852c.523.37.926.824 1.21 1.364.29.54.435 1.156.435 1.85V18h-3.921v-1.824h-.102a3.71 3.71 0 0 1-.895 1.125 3.563 3.563 0 0 1-1.27.69 5.394 5.394 0 0 1-1.636.23Zm1.287-2.728c.449 0 .852-.09 1.21-.272.364-.182.653-.432.869-.75a1.98 1.98 0 0 0 .324-1.125v-1.245c-.119.063-.264.12-.435.17a7.25 7.25 0 0 1-.545.146 9.676 9.676 0 0 1-.614.119c-.21.034-.412.065-.605.094a3.728 3.728 0 0 0-1.005.29c-.273.13-.483.3-.631.51a1.253 1.253 0 0 0-.213.734c0 .432.153.761.46.988.313.228.707.341 1.185.341ZM124.546 4.91v3.068h-8.258V4.91h8.258Zm-6.528-3.136h4.167v12.11c0 .256.04.464.12.623a.743.743 0 0 0 .366.332c.159.063.35.094.571.094.159 0 .327-.014.503-.043.182-.034.318-.062.409-.085l.631 3.008c-.199.057-.48.128-.844.214a7.05 7.05 0 0 1-1.287.162c-.977.045-1.815-.069-2.514-.341-.693-.279-1.225-.71-1.594-1.296-.363-.585-.54-1.32-.528-2.207V1.773Zm14.633 16.474c-1.369 0-2.551-.27-3.545-.81a5.597 5.597 0 0 1-2.284-2.326c-.529-1.012-.793-2.213-.793-3.605 0-1.353.267-2.534.801-3.546a5.782 5.782 0 0 1 2.259-2.37c.971-.567 2.116-.851 3.434-.851.932 0 1.785.145 2.557.434a5.49 5.49 0 0 1 2.003 1.287c.563.568 1 1.27 1.313 2.105.312.83.468 1.782.468 2.856v1.04h-11.377V10.04h7.5a2.347 2.347 0 0 0-.316-1.185 2.139 2.139 0 0 0-.844-.81 2.433 2.433 0 0 0-1.218-.298 2.48 2.48 0 0 0-1.253.316 2.367 2.367 0 0 0-1.219 2.046v2.462c0 .534.105 1.003.315 1.406.211.398.509.708.895.93.387.22.847.332 1.381.332.369 0 .705-.052 1.006-.154.301-.102.559-.253.775-.452a1.86 1.86 0 0 0 .486-.732l3.827.11a4.732 4.732 0 0 1-1.049 2.242c-.534.63-1.235 1.122-2.105 1.474-.869.347-1.875.52-3.017.52Z"/>
</svg>
